<?xml version="1.0" encoding="utf-8"?>
<!-- Generator: Adobe Illustrator 27.5.0, SVG Export Plug-In . SVG Version: 6.00 Build 0)  -->
<svg version="1.1" id="katman_1" xmlns="http://www.w3.org/2000/svg" xmlns:xlink="http://www.w3.org/1999/xlink" x="0px" y="0px"
	 viewBox="0 0 1920 1080" style="enable-background:new 0 0 1920 1080;" xml:space="preserve">
<style type="text/css">
	.st0{fill:#FFFFFF;}
</style>
<path class="st0" d="M815.73,694.94v-25.82h-25.82v25.82h-25.81v-25.82h-25.83v25.82h-25.83v-25.82h-25.82v25.82
	c0,165.52,130.41,300.58,294.09,308.06V873.68C888.4,866.39,815.73,789.15,815.73,694.94 M1277.63,669.12h25.84v25.82
	c0,165.52-130.42,300.58-294.12,308.06V873.68c92.34-7.29,165-84.53,165-178.74v-25.82h25.82v25.82h25.82v-25.82h25.82v25.82h25.82
	V669.12z M844.38,550.64H687.2c8.61-35.4,40.53-61.7,78.58-61.7C803.84,488.94,835.74,515.23,844.38,550.64 M1145.72,550.64
	c8.62-35.4,40.53-61.7,78.6-61.7c38.06,0,69.96,26.3,78.58,61.7H1145.72z M844.38,647.86H658.01
	c10.21-41.99,48.05-73.17,93.17-73.17C796.33,574.69,834.14,605.87,844.38,647.86 M1238.9,574.69c45.13,0,82.95,31.18,93.19,73.17
	h-186.37C1155.94,605.87,1193.77,574.69,1238.9,574.69 M1145.61,696.91h0.05V465.2l21.52-21.37v-21.52h-21.52v-86.79l-21.52-129.11
	l-21.52,129.11v86.79h-21.52h-21.51v-86.92l21.51-21.38v-21.52h-21.51v-86.77l-21.53-129.11l-21.52,129.11v86.77h-21.52h-21.52
	v-86.77L952.01,76.61l-21.52,129.11v86.77h-21.52v21.52l21.52,21.38v86.92h-21.52h-21.52v-86.79l-21.5-129.11l-21.52,129.11v86.79
	h-21.52v21.52l21.52,21.37v229.74c0,83.19,67.43,150.62,150.61,150.62C1077.57,845.57,1144.56,779.18,1145.61,696.91
	 M1117.58,718.69h-81.46l40.72-70.55L1117.58,718.69z M1059.61,465.2l21.51-21.37l21.52,21.37v124.37
	c-12.36-12.61-26.91-23.07-43.02-30.74V465.2z M1035.94,577.31l40.74,70.54h-81.46L1035.94,577.31z M973.52,335.39l21.52-21.38
	l21.52,21.38v86.92h-21.52h-21.52V335.39z M973.52,465.2l21.52-21.37l21.52,21.37v80.67c-7.04-1.01-14.2-1.55-21.52-1.55
	c-7.3,0-14.48,0.54-21.52,1.55V465.2z M954.14,577.31l40.74,70.54h-81.46L954.14,577.31z M887.45,465.2l21.52-21.37l21.52,21.37
	v93.62c-16.13,7.67-30.68,18.13-43.04,30.74V465.2z M872.52,718.69l40.73-70.55l40.74,70.55H872.52z M913.42,789.52l40.73-70.54
	l40.74,70.54H913.42z M954.32,718.69l40.73-70.55l40.74,70.55H954.32z M995.22,789.52l40.73-70.54l40.74,70.54H995.22z"/>
</svg>
